ply
format ascii 1.0
comment Created by Blender 2.79 (sub 0) - www.blender.org, source file: ''
element vertex 192
property float x
property float y
property float z
property float nx
property float ny
property float nz
element face 92
property list uchar uint vertex_indices
end_header
-1.594592 -0.338198 1.729634 0.098017 0.995185 0.000000
-1.594592 -0.338198 4.135184 0.098017 0.995185 0.000000
-1.565208 -0.341092 4.135184 0.098017 0.995185 0.000000
-1.565208 -0.341092 1.729634 0.098017 0.995185 0.000000
-1.565208 -0.341092 1.729634 0.290286 0.956940 0.000000
-1.565208 -0.341092 4.135184 0.290286 0.956940 0.000000
-1.536953 -0.349663 4.135184 0.290286 0.956940 0.000000
-1.536953 -0.349663 1.729634 0.290286 0.956940 0.000000
-1.536953 -0.349663 1.729634 0.471397 0.881921 0.000000
-1.536953 -0.349663 4.135184 0.471397 0.881921 0.000000
-1.510914 -0.363582 4.135184 0.471397 0.881921 0.000000
-1.510914 -0.363582 1.729634 0.471397 0.881921 0.000000
-1.510914 -0.363582 1.729634 0.634393 0.773010 0.000000
-1.510914 -0.363582 4.135184 0.634393 0.773010 0.000000
-1.488090 -0.382313 4.135184 0.634393 0.773010 0.000000
-1.488090 -0.382313 1.729634 0.634393 0.773010 0.000000
-1.488090 -0.382313 1.729634 0.773011 0.634392 0.000000
-1.488090 -0.382313 4.135184 0.773011 0.634392 0.000000
-1.469359 -0.405137 4.135184 0.773011 0.634392 0.000000
-1.469359 -0.405137 1.729634 0.773011 0.634392 0.000000
-1.469359 -0.405137 1.729634 0.881921 0.471397 0.000000
-1.469359 -0.405137 4.135184 0.881921 0.471397 0.000000
-1.455441 -0.431176 4.135184 0.881921 0.471397 0.000000
-1.455441 -0.431176 1.729634 0.881921 0.471397 0.000000
-1.455441 -0.431176 1.729634 0.956939 0.290288 0.000000
-1.455441 -0.431176 4.135184 0.956939 0.290288 0.000000
-1.446870 -0.459431 4.135184 0.956939 0.290288 0.000000
-1.446870 -0.459431 1.729634 0.956939 0.290288 0.000000
-1.446870 -0.459431 1.729634 0.995185 0.098013 0.000000
-1.446870 -0.459431 4.135184 0.995185 0.098013 0.000000
-1.443976 -0.488814 4.135184 0.995185 0.098013 0.000000
-1.443976 -0.488814 1.729634 0.995185 0.098013 0.000000
-1.443976 -0.488814 1.729634 0.995185 -0.098013 0.000000
-1.443976 -0.488814 4.135184 0.995185 -0.098013 0.000000
-1.446870 -0.518198 4.135184 0.995185 -0.098013 0.000000
-1.446870 -0.518198 1.729634 0.995185 -0.098013 0.000000
-1.446870 -0.518198 1.729634 0.956940 -0.290285 0.000000
-1.446870 -0.518198 4.135184 0.956940 -0.290285 0.000000
-1.455441 -0.546453 4.135184 0.956940 -0.290285 0.000000
-1.455441 -0.546453 1.729634 0.956940 -0.290285 0.000000
-1.455441 -0.546453 1.729634 0.881920 -0.471399 0.000000
-1.455441 -0.546453 4.135184 0.881920 -0.471399 0.000000
-1.469359 -0.572492 4.135184 0.881920 -0.471399 0.000000
-1.469359 -0.572492 1.729634 0.881920 -0.471399 0.000000
-1.469359 -0.572492 1.729634 0.773012 -0.634392 0.000000
-1.469359 -0.572492 4.135184 0.773012 -0.634392 0.000000
-1.488090 -0.595316 4.135184 0.773012 -0.634392 0.000000
-1.488090 -0.595316 1.729634 0.773012 -0.634392 0.000000
-1.488090 -0.595316 1.729634 0.634393 -0.773011 0.000000
-1.488090 -0.595316 4.135184 0.634393 -0.773011 0.000000
-1.510914 -0.614047 4.135184 0.634393 -0.773011 0.000000
-1.510914 -0.614047 1.729634 0.634393 -0.773011 0.000000
-1.510914 -0.614047 1.729634 0.471397 -0.881921 0.000000
-1.510914 -0.614047 4.135184 0.471397 -0.881921 0.000000
-1.536953 -0.627965 4.135184 0.471397 -0.881921 0.000000
-1.536953 -0.627965 1.729634 0.471397 -0.881921 0.000000
-1.536953 -0.627965 1.729634 0.290283 -0.956941 0.000000
-1.536953 -0.627965 4.135184 0.290283 -0.956941 0.000000
-1.565208 -0.636536 4.135184 0.290283 -0.956941 0.000000
-1.565208 -0.636536 1.729634 0.290283 -0.956941 0.000000
-1.565208 -0.636536 1.729634 0.098017 -0.995185 0.000000
-1.565208 -0.636536 4.135184 0.098017 -0.995185 0.000000
-1.594592 -0.639430 4.135184 0.098017 -0.995185 0.000000
-1.594592 -0.639430 1.729634 0.098017 -0.995185 0.000000
-1.594592 -0.639430 1.729634 -0.098017 -0.995185 0.000000
-1.594592 -0.639430 4.135184 -0.098017 -0.995185 0.000000
-1.623975 -0.636536 4.135184 -0.098017 -0.995185 0.000000
-1.623975 -0.636536 1.729634 -0.098017 -0.995185 0.000000
-1.623975 -0.636536 1.729634 -0.290285 -0.956940 0.000000
-1.623975 -0.636536 4.135184 -0.290285 -0.956940 0.000000
-1.652230 -0.627965 4.135184 -0.290285 -0.956940 0.000000
-1.652230 -0.627965 1.729634 -0.290285 -0.956940 0.000000
-1.652230 -0.627965 1.729634 -0.471395 -0.881922 0.000000
-1.652230 -0.627965 4.135184 -0.471395 -0.881922 0.000000
-1.678270 -0.614047 4.135184 -0.471395 -0.881922 0.000000
-1.678270 -0.614047 1.729634 -0.471395 -0.881922 0.000000
-1.678270 -0.614047 1.729634 -0.634395 -0.773009 0.000000
-1.678270 -0.614047 4.135184 -0.634395 -0.773009 0.000000
-1.701093 -0.595316 4.135184 -0.634395 -0.773009 0.000000
-1.701093 -0.595316 1.729634 -0.634395 -0.773009 0.000000
-1.701093 -0.595316 1.729634 -0.773011 -0.634393 0.000000
-1.701093 -0.595316 4.135184 -0.773011 -0.634393 0.000000
-1.719824 -0.572492 4.135184 -0.773011 -0.634393 0.000000
-1.719824 -0.572492 1.729634 -0.773011 -0.634393 0.000000
-1.719824 -0.572492 1.729634 -0.881922 -0.471396 0.000000
-1.719824 -0.572492 4.135184 -0.881922 -0.471396 0.000000
-1.733743 -0.546452 4.135184 -0.881922 -0.471396 0.000000
-1.733743 -0.546452 1.729634 -0.881922 -0.471396 0.000000
-1.733743 -0.546452 1.729634 -0.956940 -0.290284 0.000000
-1.733743 -0.546452 4.135184 -0.956940 -0.290284 0.000000
-1.742314 -0.518198 4.135184 -0.956940 -0.290284 0.000000
-1.742314 -0.518198 1.729634 -0.956940 -0.290284 0.000000
-1.742314 -0.518198 1.729634 -0.995185 -0.098013 0.000000
-1.742314 -0.518198 4.135184 -0.995185 -0.098013 0.000000
-1.745208 -0.488814 4.135184 -0.995185 -0.098013 0.000000
-1.745208 -0.488814 1.729634 -0.995185 -0.098013 0.000000
-1.745208 -0.488814 1.729634 -0.995185 0.098017 0.000000
-1.745208 -0.488814 4.135184 -0.995185 0.098017 0.000000
-1.742314 -0.459430 4.135184 -0.995185 0.098017 0.000000
-1.742314 -0.459430 1.729634 -0.995185 0.098017 0.000000
-1.742314 -0.459430 1.729634 -0.956940 0.290284 0.000000
-1.742314 -0.459430 4.135184 -0.956940 0.290284 0.000000
-1.733743 -0.431176 4.135184 -0.956940 0.290284 0.000000
-1.733743 -0.431176 1.729634 -0.956940 0.290284 0.000000
-1.733743 -0.431176 1.729634 -0.881920 0.471400 0.000000
-1.733743 -0.431176 4.135184 -0.881920 0.471400 0.000000
-1.719824 -0.405136 4.135184 -0.881920 0.471400 0.000000
-1.719824 -0.405136 1.729634 -0.881920 0.471400 0.000000
-1.719824 -0.405136 1.729634 -0.773011 0.634393 0.000000
-1.719824 -0.405136 4.135184 -0.773011 0.634393 0.000000
-1.701093 -0.382313 4.135184 -0.773011 0.634393 0.000000
-1.701093 -0.382313 1.729634 -0.773011 0.634393 0.000000
-1.701093 -0.382313 1.729634 -0.634391 0.773012 0.000000
-1.701093 -0.382313 4.135184 -0.634391 0.773012 0.000000
-1.678269 -0.363582 4.135184 -0.634391 0.773012 0.000000
-1.678269 -0.363582 1.729634 -0.634391 0.773012 0.000000
-1.678269 -0.363582 1.729634 -0.471397 0.881921 0.000000
-1.678269 -0.363582 4.135184 -0.471397 0.881921 0.000000
-1.652230 -0.349663 4.135184 -0.471397 0.881921 0.000000
-1.652230 -0.349663 1.729634 -0.471397 0.881921 0.000000
-1.536953 -0.349663 4.135184 0.000000 0.000000 1.000000
-1.565208 -0.341092 4.135184 0.000000 0.000000 1.000000
-1.594592 -0.338198 4.135184 0.000000 0.000000 1.000000
-1.623975 -0.341092 4.135184 0.000000 0.000000 1.000000
-1.652230 -0.349663 4.135184 0.000000 0.000000 1.000000
-1.678269 -0.363582 4.135184 0.000000 0.000000 1.000000
-1.701093 -0.382313 4.135184 0.000000 0.000000 1.000000
-1.719824 -0.405136 4.135184 0.000000 0.000000 1.000000
-1.733743 -0.431176 4.135184 0.000000 0.000000 1.000000
-1.742314 -0.459430 4.135184 0.000000 0.000000 1.000000
-1.745208 -0.488814 4.135184 0.000000 0.000000 1.000000
-1.742314 -0.518198 4.135184 0.000000 0.000000 1.000000
-1.733743 -0.546452 4.135184 0.000000 0.000000 1.000000
-1.719824 -0.572492 4.135184 0.000000 0.000000 1.000000
-1.701093 -0.595316 4.135184 0.000000 0.000000 1.000000
-1.678270 -0.614047 4.135184 0.000000 0.000000 1.000000
-1.652230 -0.627965 4.135184 0.000000 0.000000 1.000000
-1.623975 -0.636536 4.135184 0.000000 0.000000 1.000000
-1.594592 -0.639430 4.135184 0.000000 0.000000 1.000000
-1.565208 -0.636536 4.135184 0.000000 0.000000 1.000000
-1.536953 -0.627965 4.135184 0.000000 0.000000 1.000000
-1.510914 -0.614047 4.135184 0.000000 0.000000 1.000000
-1.488090 -0.595316 4.135184 0.000000 0.000000 1.000000
-1.469359 -0.572492 4.135184 0.000000 0.000000 1.000000
-1.455441 -0.546453 4.135184 0.000000 0.000000 1.000000
-1.446870 -0.518198 4.135184 0.000000 0.000000 1.000000
-1.443976 -0.488814 4.135184 0.000000 0.000000 1.000000
-1.446870 -0.459431 4.135184 0.000000 0.000000 1.000000
-1.455441 -0.431176 4.135184 0.000000 0.000000 1.000000
-1.469359 -0.405137 4.135184 0.000000 0.000000 1.000000
-1.488090 -0.382313 4.135184 0.000000 0.000000 1.000000
-1.510914 -0.363582 4.135184 0.000000 0.000000 1.000000
-1.652230 -0.349663 1.729634 -0.290283 0.956941 0.000000
-1.652230 -0.349663 4.135184 -0.290283 0.956941 0.000000
-1.623975 -0.341092 4.135184 -0.290283 0.956941 0.000000
-1.623975 -0.341092 1.729634 -0.290283 0.956941 0.000000
-1.594592 -0.338198 4.135184 -0.098017 0.995185 0.000000
-1.594592 -0.338198 1.729634 -0.098017 0.995185 0.000000
-1.623975 -0.341092 1.729634 -0.098017 0.995185 0.000000
-1.623975 -0.341092 4.135184 -0.098017 0.995185 0.000000
-1.623975 -0.341092 1.729634 -0.000000 0.000000 -1.000000
-1.594592 -0.338198 1.729634 -0.000000 0.000000 -1.000000
-1.565208 -0.341092 1.729634 -0.000000 0.000000 -1.000000
-1.536953 -0.349663 1.729634 0.000000 0.000000 -1.000000
-1.510914 -0.363582 1.729634 0.000000 0.000000 -1.000000
-1.488090 -0.382313 1.729634 0.000000 0.000000 -1.000000
-1.469359 -0.405137 1.729634 0.000000 0.000000 -1.000000
-1.455441 -0.431176 1.729634 0.000000 0.000000 -1.000000
-1.446870 -0.459431 1.729634 0.000000 0.000000 -1.000000
-1.443976 -0.488814 1.729634 0.000000 0.000000 -1.000000
-1.446870 -0.518198 1.729634 0.000000 0.000000 -1.000000
-1.455441 -0.546453 1.729634 0.000000 0.000000 -1.000000
-1.469359 -0.572492 1.729634 0.000000 0.000000 -1.000000
-1.488090 -0.595316 1.729634 0.000000 0.000000 -1.000000
-1.510914 -0.614047 1.729634 0.000000 0.000000 -1.000000
-1.536953 -0.627965 1.729634 0.000000 0.000000 -1.000000
-1.565208 -0.636536 1.729634 0.000000 0.000000 -1.000000
-1.594592 -0.639430 1.729634 0.000000 0.000000 -1.000000
-1.623975 -0.636536 1.729634 0.000000 0.000000 -1.000000
-1.652230 -0.627965 1.729634 0.000000 0.000000 -1.000000
-1.678270 -0.614047 1.729634 0.000000 0.000000 -1.000000
-1.701093 -0.595316 1.729634 0.000000 0.000000 -1.000000
-1.719824 -0.572492 1.729634 0.000000 0.000000 -1.000000
-1.733743 -0.546452 1.729634 0.000000 0.000000 -1.000000
-1.742314 -0.518198 1.729634 0.000000 0.000000 -1.000000
-1.745208 -0.488814 1.729634 0.000000 -0.000000 -1.000000
-1.742314 -0.459430 1.729634 0.000000 -0.000000 -1.000000
-1.733743 -0.431176 1.729634 0.000000 0.000000 -1.000000
-1.719824 -0.405136 1.729634 0.000000 0.000000 -1.000000
-1.701093 -0.382313 1.729634 0.000000 0.000000 -1.000000
-1.678269 -0.363582 1.729634 0.000000 0.000000 -1.000000
-1.652230 -0.349663 1.729634 0.000000 0.000000 -1.000000
4 0 1 2 3
4 4 5 6 7
4 8 9 10 11
4 12 13 14 15
4 16 17 18 19
4 20 21 22 23
4 24 25 26 27
4 28 29 30 31
4 32 33 34 35
4 36 37 38 39
4 40 41 42 43
4 44 45 46 47
4 48 49 50 51
4 52 53 54 55
4 56 57 58 59
4 60 61 62 63
4 64 65 66 67
4 68 69 70 71
4 72 73 74 75
4 76 77 78 79
4 80 81 82 83
4 84 85 86 87
4 88 89 90 91
4 92 93 94 95
4 96 97 98 99
4 100 101 102 103
4 104 105 106 107
4 108 109 110 111
4 112 113 114 115
4 116 117 118 119
3 120 121 122
3 122 123 124
3 124 125 126
3 126 127 128
3 128 129 130
3 130 131 132
3 132 133 134
3 134 135 136
3 136 137 138
3 138 139 140
3 140 141 142
3 142 143 144
3 144 145 146
3 146 147 148
3 148 149 150
3 150 151 120
3 120 122 124
3 124 126 128
3 128 130 132
3 132 134 136
3 136 138 140
3 140 142 144
3 144 146 148
3 148 150 120
3 120 124 128
3 128 132 136
3 136 140 144
3 144 148 120
3 120 128 136
3 136 144 120
4 152 153 154 155
4 156 157 158 159
3 160 161 162
3 162 163 164
3 164 165 166
3 166 167 168
3 168 169 170
3 170 171 172
3 172 173 174
3 174 175 176
3 176 177 178
3 178 179 180
3 180 181 182
3 182 183 184
3 184 185 186
3 186 187 188
3 188 189 190
3 190 191 160
3 160 162 164
3 164 166 168
3 168 170 172
3 172 174 176
3 176 178 180
3 180 182 184
3 184 186 188
3 188 190 160
3 160 164 168
3 168 172 176
3 176 180 184
3 184 188 160
3 160 168 176
3 176 184 160
